<svg width="67" height="77" viewBox="0 0 67 77" fill="none" xmlns="http://www.w3.org/2000/svg">
<circle cx="33.5" cy="38.5" r="33.5" fill="#5F2020"/>
<path d="M38.4318 15.4545L37.5455 48.0455H29.2273L28.3182 15.4545H38.4318ZM33.3864 62.5909C31.8864 62.5909 30.5985 62.0606 29.5227 61C28.447 59.9242 27.9167 58.6364 27.9318 57.1364C27.9167 55.6515 28.447 54.3788 29.5227 53.3182C30.5985 52.2576 31.8864 51.7273 33.3864 51.7273C34.8258 51.7273 36.0909 52.2576 37.1818 53.3182C38.2727 54.3788 38.8258 55.6515 38.8409 57.1364C38.8258 58.1364 38.5606 59.053 38.0455 59.8864C37.5455 60.7045 36.8864 61.3636 36.0682 61.8636C35.25 62.3485 34.3561 62.5909 33.3864 62.5909Z" fill="#FDFDFD"/>
</svg>
